<svg xmlns="http://www.w3.org/2000/svg" viewBox="0 0 24 24" fill="none" stroke="#6b7280" stroke-width="2" stroke-linecap="round" stroke-linejoin="round">
  <circle cx="12" cy="12" r="3"/>
  <path d="M19.4 15a1.65 1.65 0 0 0 .33 1.82l.06.06a2 2 0 1 1-2.83 2.83l-.06-.06a1.65 1.65 0 0 0-1.82-.33 1.65 1.65 0 0 0-1 1.51V21a2 2 0 1 1-4 0v-.09a1.65 1.65 0 0 0-1-1.51 1.65 1.65 0 0 0-1.82.33l-.06.06a2 2 0 1 1-2.83-2.83l.06-.06a1.65 1.65 0 0 0 .33-1.82 1.65 1.65 0 0 0-1.51-1H3a2 2 0 1 1 0-4h.09c.66 0 1.26-.39 1.51-1a1.65 1.65 0 0 0-.33-1.82l-.06-.06A2 2 0 1 1 7.04 3.4l.06.06c.47.47 1.16.61 1.82.33h.01c.61-.25 1-.85 1-1.51V3a2 2 0 1 1 4 0v.09c0 .66.39 1.26 1 1.51.66.28 1.35.14 1.82-.33l-.06-.06A2 2 0 1 1 20.6 7.04l-.06.06c-.47.47-.61 1.16-.33 1.82v.01c.25.61.85 1 1.51 1H21a2 2 0 1 1 0 4h-.09c-.66 0-1.26.39-1.51 1z"/>
</svg>